#!OML:ASF H:\IndianDance\Patient Classification 1\Patient 1\Session 1\dancer.ASF
:FULLY-SPECIFIED
:DEGREES
1966
root -3.69116 16.4246 10.9013 1086.23 -228.517 -354.485
lowerback 14.4788 1.11633 2.95336
upperback -5.22192 2.19823 0.406673
thorax -13.9125 0.798141 -1.79519
lowerneck -21.004 -0.765959 0.338419
upperneck 18.8992 -3.7451 13.5222
head 9.81939 0.118753 4.21794
rclavicle 3.36754e-014 1.59028e-015
rhumerus -9.02502 47.3476 -23.4412
rradius 119.946
rwrist -38.9879
rhand 10.3622 8.76556
rfingers 7.12502
rthumb 35.4698 -17.6795
lclavicle 3.36754e-014 1.59028e-015
lhumerus 38.3213 -32.7209 -11.9703
lradius 101.279
lwrist 37.5477
lhand -6.79828 3.91395
lfingers 7.12502
lthumb 19.0648 -327
rfemur -11.9413 -9.01011 31.7303
rtibia 37.0706
rfoot 27.2263 21.7981
rtoes 42.618
lfemur 93.9895 162.642 138.286
ltibia 109.799
lfoot 48.0347 -0.422786
ltoes 47.6334
1967
root -3.72003 16.5921 10.7719 1087.79 -233.292 -354.087
lowerback 14.0461 1.24967 2.70912
upperback -5.3917 2.30916 0.307109
thorax -13.8439 0.868207 -1.78588
lowerneck -21.3037 -0.614605 0.410429
upperneck 18.8822 -3.60231 13.5255
head 9.85738 0.186028 4.22969
rclavicle 6.71395e-014 1.17283e-014
rhumerus -7.41466 47.7652 -22.5073
rradius 119.791
rwrist -39.4514
rhand 10.5406 8.8136
rfingers 7.12502
rthumb 35.6389 -17.5908
lclavicle 6.71395e-014 1.17283e-014
lhumerus 37.4681 -32.9973 -13.2948
lradius 103.613
lwrist 37.9094
lhand -5.89156 3.78143
lfingers 7.12502
lthumb 19.9366 -327.221
rfemur -13.9311 -10.8574 31.23
rtibia 39.6174
rfoot 27.8278 19.6787
rtoes 40.7273
lfemur 96.0137 161.283 139.994
ltibia 108.083
lfoot 49.0526 -0.79493
ltoes 47.6763
1968
root -3.74439 16.7518 10.6343 1089.44 -238.189 -353.545
lowerback 13.6294 1.40362 2.40837
upperback -5.5471 2.43562 0.181259
thorax -13.7685 0.94929 -1.77679
lowerneck -21.6357 -0.421062 0.547508
upperneck 18.9188 -3.4143 13.4613
head 9.91407 0.274825 4.21565
rclavicle 6.9264e-014 5.76476e-015
rhumerus -5.76195 48.1479 -21.489
rradius 119.667
rwrist -39.8957
rhand 10.7392 8.8224
rfingers 7.12502
rthumb 35.8271 -17.5364
lclavicle 6.9264e-014 5.76476e-015
lhumerus 36.5868 -33.2726 -14.552
lradius 105.721
lwrist 38.2566
lhand -4.94818 3.66413
lfingers 7.12502
lthumb 20.8432 -327.435
rfemur -16.1738 -12.8423 30.8019
rtibia 42.9208
rfoot 27.0413 16.5958
rtoes 38.5195
lfemur 98.3682 160.088 141.761
ltibia 105.744
lfoot 49.4448 -1.50653
ltoes 47.0313
1969
root -3.7627 16.9013 10.4881 1091.22 -243.198 -352.787
lowerback 13.2494 1.58179 2.05519
upperback -5.69753 2.58465 0.0266612
thorax -13.7103 1.04368 -1.7755
lowerneck -21.9944 -0.189213 0.757607
upperneck 19.031 -3.18695 13.3053
head 9.99654 0.380651 4.16564
rclavicle 1.74558e-015 -4.17448e-015
rhumerus -4.11266 48.5039 -20.4181
rradius 119.565
rwrist -40.3144
rhand 10.9724 8.77685
rfingers 7.12502
rthumb 36.0481 -17.5278
lclavicle 1.74558e-015 -4.17448e-015
lhumerus 35.7162 -33.575 -15.7429
lradius 107.622
lwrist 38.6909
lhand -4.01999 3.59285
lfingers 7.12502
lthumb 21.7348 -327.607
rfemur -18.5885 -14.8177 30.4078
rtibia 46.8915
rfoot 25.1995 11.9064
rtoes 36.3777
lfemur 101.028 159.097 143.547
ltibia 102.832
lfoot 49.3208 -2.70057
ltoes 45.5487
1970
root -3.77316 17.0389 10.3333 1093.29 -248.322 -351.621
lowerback 12.9092 1.79166 1.65655
upperback -5.84128 2.76943 -0.14535
thorax -13.6697 1.15767 -1.77666
lowerneck -22.3369 0.0739825 1.02016
upperneck 19.1991 -2.92083 13.0658
head 10.0912 0.499985 4.08467
rclavicle -8.60365e-015 5.1684e-015
rhumerus -2.47129 48.8447 -19.2972
rradius 119.475
rwrist -40.6957
rhand 11.229 8.67272
rfingers 7.12502
rthumb 36.2911 -17.5717
lclavicle -8.60365e-015 5.1684e-015
lhumerus 34.8756 -33.9265 -16.8529
lradius 109.334
lwrist 39.2494
lhand -3.1755 3.57477
lfingers 7.12502
lthumb 22.5455 -327.722
rfemur -21.0943 -16.6296 30.0055
rtibia 51.408
rfoot 23.0026 5.50846
rtoes 35.652
lfemur 103.974 158.302 145.342
ltibia 99.4192
lfoot 48.8207 -4.36191
ltoes 43.2054
1971
root -3.77424 17.1608 10.1707 1096.11 -253.532 -349.578
lowerback 12.6245 2.03379 1.24405
upperback -5.98432 2.99786 -0.327288
thorax -13.6628 1.29228 -1.79268
lowerneck -22.6304 0.357906 1.31491
upperneck 19.4112 -2.62458 12.764
head 10.1902 0.628339 3.98152
rclavicle 9.18447e-014 1.39149e-014
rhumerus -0.882119 49.1733 -18.1683
rradius 119.381
rwrist -41.0359
rhand 11.5372 8.53702
rfingers 7.12502
rthumb 36.5829 -17.6341
lclavicle 9.18447e-014 1.39149e-014
lhumerus 34.0994 -34.3516 -17.8747
lradius 110.872
lwrist 39.9063
lhand -2.32519 3.55157
lfingers 7.12502
lthumb 23.3615 -327.846
rfemur -23.6305 -18.2089 29.5707
rtibia 56.3475
rfoot 20.4298 -1.82843
rtoes 36.6907
lfemur 107.168 157.716 147.131
ltibia 95.579
lfoot 48.0365 -6.41924
ltoes 40.1025
1972
root -3.76396 17.2672 10.0002 1100.89 -258.797 -345.42
lowerback 12.3896 2.30776 0.828008
upperback -6.11591 3.27083 -0.511514
thorax -13.6743 1.44767 -1.82084
lowerneck -22.8713 0.657766 1.62133
upperneck 19.6613 -2.29911 12.4121
head 10.2921 0.764587 3.8635
rclavicle -1.29055e-014 -1.35174e-014
rhumerus 0.645131 49.4984 -17.0437
rradius 119.291
rwrist -41.3793
rhand 11.8217 8.33078
rfingers 7.12502
rthumb 36.852 -17.7718
lclavicle -1.29055e-014 -1.35174e-014
lhumerus 33.3845 -34.8496 -18.7779
lradius 112.24
lwrist 40.5733
lhand -1.48287 3.49697
lfingers 7.12502
lthumb 24.1693 -328.006
rfemur -26.1522 -19.5481 29.0453
rtibia 61.5937
rfoot 17.1709 -8.64965
rtoes 38.5781
lfemur 110.621 157.325 148.898
ltibia 91.3829
lfoot 47.018 -8.73181
ltoes 36.3324
1973
root -3.74065 17.3581 9.82317 1113.34 -263.961 -333.432
lowerback 12.1967 2.60683 0.440738
upperback -6.22571 3.58526 -0.686036
thorax -13.6866 1.62035 -1.86473
lowerneck -23.0577 0.964625 1.88287
upperneck 19.9373 -1.94893 12.0729
head 10.3946 0.909654 3.76187
rclavicle 2.637e-014 -5.56597e-015
rhumerus 2.12852 49.8107 -15.9285
rradius 119.185
rwrist -41.7243
rhand 12.1209 8.12135
rfingers 7.12502
rthumb 37.135 -17.9081
lclavicle 2.637e-014 -5.56597e-015
lhumerus 32.7255 -35.4177 -19.5536
lradius 113.456
lwrist 41.1755
lhand -0.66209 3.414
lfingers 7.12502
lthumb 24.9561 -328.196
rfemur -28.6358 -20.6876 28.4254
rtibia 67.0503
rfoot 13.3453 -13.5884
rtoes 39.8216
lfemur 114.322 157.123 150.646
ltibia 86.9012
lfoot 45.7305 -11.2549
ltoes 32.0663
1974
root -3.70295 17.4336 9.64074 1179.44 -267.361 -267.624
lowerback 12.0562 2.9233 0.113055
upperback -6.31445 3.9366 -0.840945
thorax -13.7058 1.80556 -1.93049
lowerneck -23.206 1.27148 2.06692
upperneck 20.2478 -1.58261 11.7867
head 10.5053 1.06314 3.69626
rclavicle 4.09155e-014 -1.19271e-015
rhumerus 3.54901 50.1102 -14.8455
rradius 119.073
rwrist -42.1128
rhand 12.4596 7.90537
rfingers 7.12502
rthumb 37.4553 -18.04
lclavicle 4.09155e-014 -1.19271e-015
lhumerus 32.1152 -36.0552 -20.1859
lradius 114.521
lwrist 41.6493
lhand 0.176814 3.26587
lfingers 7.12502
lthumb 25.7597 -328.458
rfemur -31.072 -21.6891 27.7212
rtibia 72.6386
rfoot 9.90095 -16.134
rtoes 40.0535
lfemur 118.253 157.124 152.386
ltibia 82.2034
lfoot 44.162 -13.5176
ltoes 27.9624
